<?xml version="1.0" standalone="no"?>
<!DOCTYPE svg PUBLIC "-//W3C//DTD SVG 20010904//EN"
 "http://www.w3.org/TR/2001/REC-SVG-20010904/DTD/svg10.dtd">
<svg version="1.0" xmlns="http://www.w3.org/2000/svg"
 width="32.000000pt" height="32.000000pt" viewBox="0 0 32.000000 32.000000"
 preserveAspectRatio="xMidYMid meet">

<g transform="translate(0.000000,32.000000) scale(0.100000,-0.100000)"
fill="#000000" stroke="none">
<path d="M241 275 c-28 -19 -61 -35 -74 -35 -13 0 -32 -7 -43 -15 -17 -13 -17
-14 -1 -15 25 0 22 -7 -26 -64 -54 -64 -87 -111 -87 -124 0 -14 30 -5 60 19
15 11 18 17 8 13 -30 -10 -20 14 23 61 45 49 59 55 59 26 0 -11 5 -23 10 -26
6 -3 10 -17 10 -30 0 -21 3 -23 22 -16 34 12 61 55 59 93 -3 54 -4 57 -12 53
-3 -3 -12 2 -19 9 -9 12 -7 17 9 25 27 15 34 14 27 -4 -10 -26 3 -16 24 18 36
59 24 62 -49 12z"/>
</g>
</svg>
