<svg xmlns="http://www.w3.org/2000/svg" viewBox="0 0 16 16" id="Letterboxd--Streamline-Font-Awesome" height="16" width="16">
  <desc>
    Letterboxd Streamline Icon: https://streamlinehq.com
  </desc>
<!--! Font Awesome Free 6.5.2 by @fontawesome - https://fontawesome.com License - https://fontawesome.com/license/free (Icons: CC BY 4.0, Fonts: SIL OFL 1.1, Code: MIT License) Copyright 2024 Fonticons, Inc.-->
  <path d="M12.93185 5.0943000000000005C14.539050000000001 5.0943000000000005 15.840000000000002 6.395250000000001 15.840000000000002 8s-1.30095 2.9057 -2.90815 2.9057c-1.04125 0 -1.95265 -0.54635 -2.46715 -1.3671 0.27930000000000005 -0.44589999999999996 0.44100000000000006 -0.97265 0.44100000000000006 -1.5386s-0.1617 -1.0927 -0.44100000000000006 -1.5386l0.019600000000000003 -0.0294c0.5096 -0.79135 1.3916000000000002 -1.3205500000000001 2.3985499999999997 -1.3377000000000001h0.049Zm-4.931850000000001 0c1.04125 0 1.95265 0.54635 2.46715 1.3671 -0.27930000000000005 0.44589999999999996 -0.44100000000000006 0.97265 -0.44100000000000006 1.5386s0.1617 1.0927 0.44100000000000006 1.5386l-0.019600000000000003 0.0294c-0.5096 0.79135 -1.3916000000000002 1.3205500000000001 -2.3985499999999997 1.3377000000000001H8c-1.04125 0 -1.95265 -0.54635 -2.46715 -1.3671 0.27930000000000005 -0.44589999999999996 0.44100000000000006 -0.97265 0.44100000000000006 -1.5386s-0.1617 -1.0927 -0.44100000000000006 -1.5386l0.019600000000000003 -0.0294c0.5096 -0.79135 1.3916000000000002 -1.3205500000000001 2.3985499999999997 -1.3377000000000001H8Zm-4.931850000000001 0c1.04125 0 1.95265 0.54635 2.46715 1.3671 -0.27930000000000005 0.44589999999999996 -0.44100000000000006 0.97265 -0.44100000000000006 1.5386s0.1617 1.0927 0.44100000000000006 1.5386l-0.019600000000000003 0.0294c-0.5096 0.79135 -1.3916000000000002 1.3205500000000001 -2.3985499999999997 1.3377000000000001h-0.049C1.4609500000000002 10.90325 0.16000000000000003 9.604750000000001 0.16000000000000003 8s1.30095 -2.9057 2.90815 -2.9057Z" fill="#000000" stroke-width="0.025"></path>
</svg>